<svg xmlns="http://www.w3.org/2000/svg" width="1152" height="640" viewBox="0 0 1152 640"><rect width="100%" height="100%" fill="#DDDDDD"/><path fill="#999999" d="M279.575 356.315h17.55v12.49h-54v-12.49h19.77v-56.9q0-3.38.21-6.95l-14.04 11.74q-1.22.95-2.4 1.18-1.18.24-2.23.04-1.04-.21-1.85-.71-.81-.51-1.22-1.11l-5.26-7.23 29.77-25.31h13.7v85.25Zm78.3 0h17.55v12.49h-54v-12.49h19.78v-56.9q0-3.38.2-6.95l-14.04 11.74q-1.22.95-2.4 1.18-1.18.24-2.23.04-1.04-.21-1.85-.71-.81-.51-1.22-1.11l-5.26-7.23 29.77-25.31h13.7v85.25Zm56.83-69.99-3.44 20.31q3.24-.67 6.21-.98 2.97-.3 5.74-.3 7.69 0 13.57 2.29 5.87 2.3 9.85 6.35 3.98 4.05 6.01 9.48 2.02 5.44 2.02 11.71 0 7.77-2.73 14.18t-7.59 10.97q-4.86 4.55-11.51 7.05-6.65 2.5-14.48 2.5-4.59 0-8.71-.94-4.12-.95-7.73-2.54-3.61-1.58-6.68-3.64t-5.5-4.36l5.13-7.08q1.62-2.3 4.25-2.3 1.69 0 3.44 1.08 1.76 1.08 4.02 2.36 2.26 1.29 5.33 2.37 3.07 1.08 7.39 1.08 4.59 0 8.1-1.49 3.51-1.48 5.84-4.15 2.33-2.67 3.51-6.34 1.18-3.68 1.18-8 0-7.97-4.62-12.46-4.62-4.49-13.67-4.49-6.95 0-14.24 2.57l-10.4-2.97 8.1-47.39h48.2v7.09q0 3.58-2.23 5.81-2.23 2.23-7.56 2.23h-26.8Zm88.63 66.95h25.04q2.7 0 4.29 1.52 1.59 1.52 1.59 4.02v9.99h-66.96v-5.54q0-1.68.7-3.54.71-1.86 2.27-3.34l29.63-29.7q3.71-3.78 6.65-7.22 2.93-3.45 4.89-6.82 1.96-3.38 3-6.85 1.05-3.48 1.05-7.33 0-3.5-1.01-6.17t-2.87-4.49q-1.86-1.82-4.46-2.73-2.59-.92-5.83-.92-2.97 0-5.51.85-2.53.84-4.48 2.36-1.96 1.52-3.31 3.54-1.35 2.03-2.03 4.46-1.14 3.1-2.97 4.12-1.82 1.01-5.26.47l-8.78-1.55q1.02-7.02 3.92-12.32 2.9-5.3 7.25-8.84 4.36-3.55 9.99-5.34 5.64-1.79 12.12-1.79 6.75 0 12.35 2 5.61 1.99 9.59 5.63 3.98 3.65 6.21 8.78 2.23 5.13 2.23 11.4 0 5.4-1.59 9.99t-4.25 8.78q-2.67 4.18-6.25 8.1-3.57 3.91-7.49 7.96l-22 22.48q3.17-.94 6.31-1.45 3.14-.51 5.97-.51Zm140.94-6.81-8.84 8.7-22.88-22.88-23.09 23.02-8.84-8.71 23.08-23.15-22-22.01 8.77-8.77 22.01 22 21.87-21.87 8.91 8.78-21.94 21.94 22.95 22.95Zm104.29-75.27-28.96 35.44-3.37 4.19q2.83-1.42 6.1-2.2 3.28-.77 7.06-.77 5.53 0 10.76 1.82 5.24 1.82 9.22 5.5 3.98 3.68 6.41 9.15 2.43 5.46 2.43 12.75 0 6.82-2.5 12.8-2.49 5.97-7.02 10.42-4.52 4.46-10.9 7.02-6.38 2.57-14.07 2.57-7.83 0-14.04-2.5-6.21-2.5-10.6-6.98-4.39-4.49-6.72-10.8-2.32-6.32-2.32-14.01 0-6.89 2.8-14.14 2.8-7.26 8.67-15.09l23.29-31.25q1.21-1.62 3.54-2.77t5.37-1.15h14.85Zm-25.18 85.05q3.98 0 7.32-1.35 3.35-1.35 5.74-3.78 2.4-2.43 3.75-5.7t1.35-7.12q0-4.19-1.28-7.53-1.29-3.34-3.65-5.67t-5.67-3.54q-3.31-1.22-7.29-1.22t-7.22 1.35q-3.24 1.35-5.54 3.75-2.29 2.4-3.57 5.67-1.29 3.27-1.29 7.05 0 4.05 1.12 7.4 1.11 3.34 3.3 5.7 2.2 2.36 5.44 3.68 3.24 1.31 7.49 1.31Zm57.65-24.23h29.7v-31.93q0-4.52.6-9.98l-30.3 41.91Zm44.21 0h12.28v9.65q0 1.35-.87 2.33-.88.98-2.5.98h-8.91v23.83h-14.51v-23.83h-41.18q-1.69 0-2.97-1.04-1.28-1.05-1.62-2.6l-1.75-8.44 46.23-61.76h15.8v60.88Zm90.65-12.01q0 12.75-2.73 22.17-2.74 9.42-7.56 15.56-4.83 6.14-11.41 9.15-6.58 3-14.21 3-7.63 0-14.14-3-6.51-3.01-11.31-9.15-4.79-6.14-7.49-15.56-2.7-9.42-2.7-22.17 0-12.83 2.7-22.21t7.49-15.53q4.8-6.14 11.31-9.14 6.51-3.01 14.14-3.01 7.63 0 14.21 3.01 6.58 3 11.41 9.14 4.82 6.15 7.56 15.53 2.73 9.38 2.73 22.21Zm-17.21 0q0-10.6-1.55-17.55-1.56-6.96-4.16-11.07-2.59-4.12-5.97-5.77-3.37-1.66-7.02-1.66-3.58 0-6.92 1.66-3.34 1.65-5.9 5.77-2.57 4.11-4.09 11.07-1.52 6.95-1.52 17.55 0 10.59 1.52 17.55 1.52 6.95 4.09 11.07 2.56 4.11 5.9 5.77 3.34 1.65 6.92 1.65 3.65 0 7.02-1.65 3.38-1.66 5.97-5.77 2.6-4.12 4.16-11.07 1.55-6.96 1.55-17.55Z"/></svg>