<svg width="22" height="22" viewBox="0 0 22 22" fill="none" xmlns="http://www.w3.org/2000/svg">
<path d="M17.7756 18.5488C16.7822 15.8918 14.2204 14 11.2168 14C8.21317 14 5.6514 15.8918 4.65796 18.5488M17.7756 18.5488C19.884 16.7154 21.2168 14.0134 21.2168 11C21.2168 5.47715 16.7396 1 11.2168 1C5.69395 1 1.2168 5.47715 1.2168 11C1.2168 14.0134 2.54964 16.7154 4.65796 18.5488M17.7756 18.5488C16.0199 20.0756 13.7263 21 11.2168 21C8.70732 21 6.41373 20.0756 4.65796 18.5488M14.2168 8C14.2168 9.65685 12.8737 11 11.2168 11C9.55994 11 8.2168 9.65685 8.2168 8C8.2168 6.34315 9.55994 5 11.2168 5C12.8737 5 14.2168 6.34315 14.2168 8Z" stroke="#141718" stroke-width="1.5" stroke-linejoin="round"/>
</svg>
