<svg width="106" height="27" viewBox="0 0 106 27" fill="none" xmlns="http://www.w3.org/2000/svg">
<path d="M1.87833 6.824C1.97433 5.336 2.54233 4.176 3.58233 3.344C4.63833 2.512 5.98233 2.096 7.61433 2.096C8.73433 2.096 9.70233 2.296 10.5183 2.696C11.3343 3.096 11.9503 3.64 12.3663 4.328C12.7823 5.016 12.9903 5.792 12.9903 6.656C12.9903 7.648 12.7263 8.496 12.1983 9.2C11.6703 9.904 11.0383 10.376 10.3023 10.616V10.712C11.2463 11 11.9823 11.528 12.5103 12.296C13.0383 13.048 13.3023 14.016 13.3023 15.2C13.3023 16.144 13.0863 16.984 12.6543 17.72C12.2223 18.456 11.5823 19.04 10.7343 19.472C9.88633 19.888 8.87033 20.096 7.68633 20.096C5.95833 20.096 4.53433 19.656 3.41433 18.776C2.31033 17.88 1.71833 16.6 1.63833 14.936H4.27833C4.34233 15.784 4.67033 16.48 5.26233 17.024C5.85433 17.552 6.65433 17.816 7.66233 17.816C8.63833 17.816 9.39033 17.552 9.91833 17.024C10.4463 16.48 10.7103 15.784 10.7103 14.936C10.7103 13.816 10.3503 13.024 9.63033 12.56C8.92633 12.08 7.83833 11.84 6.36633 11.84H5.74233V9.584H6.39033C7.68633 9.568 8.67033 9.352 9.34233 8.936C10.0303 8.52 10.3743 7.864 10.3743 6.968C10.3743 6.2 10.1263 5.592 9.63033 5.144C9.13433 4.68 8.43033 4.448 7.51833 4.448C6.62233 4.448 5.92633 4.68 5.43033 5.144C4.93433 5.592 4.63833 6.152 4.54233 6.824H1.87833ZM19.2723 2.24V20H16.5363V2.24H19.2723ZM34.9845 13.064C34.9845 13.56 34.9525 14.008 34.8885 14.408H24.7845C24.8645 15.464 25.2565 16.312 25.9605 16.952C26.6645 17.592 27.5285 17.912 28.5525 17.912C30.0245 17.912 31.0645 17.296 31.6725 16.064H34.6245C34.2245 17.28 33.4965 18.28 32.4405 19.064C31.4005 19.832 30.1045 20.216 28.5525 20.216C27.2885 20.216 26.1525 19.936 25.1445 19.376C24.1525 18.8 23.3685 18 22.7925 16.976C22.2325 15.936 21.9525 14.736 21.9525 13.376C21.9525 12.016 22.2245 10.824 22.7685 9.8C23.3285 8.76 24.1045 7.96 25.0965 7.4C26.1045 6.84 27.2565 6.56 28.5525 6.56C29.8005 6.56 30.9125 6.832 31.8885 7.376C32.8645 7.92 33.6245 8.688 34.1685 9.68C34.7125 10.656 34.9845 11.784 34.9845 13.064ZM32.1285 12.2C32.1125 11.192 31.7525 10.384 31.0485 9.776C30.3445 9.168 29.4725 8.864 28.4325 8.864C27.4885 8.864 26.6805 9.168 26.0085 9.776C25.3365 10.368 24.9365 11.176 24.8085 12.2H32.1285ZM43.005 6.56C44.029 6.56 44.933 6.768 45.717 7.184C46.517 7.584 47.141 8.088 47.589 8.696V6.776H50.349V20.216C50.349 21.432 50.093 22.512 49.581 23.456C49.069 24.416 48.325 25.168 47.349 25.712C46.389 26.256 45.237 26.528 43.893 26.528C42.101 26.528 40.613 26.104 39.429 25.256C38.245 24.424 37.573 23.288 37.413 21.848H40.125C40.333 22.536 40.773 23.088 41.445 23.504C42.133 23.936 42.949 24.152 43.893 24.152C44.997 24.152 45.885 23.816 46.557 23.144C47.245 22.472 47.589 21.496 47.589 20.216V18.008C47.125 18.632 46.493 19.16 45.693 19.592C44.909 20.008 44.013 20.216 43.005 20.216C41.853 20.216 40.797 19.928 39.837 19.352C38.893 18.76 38.141 17.944 37.581 16.904C37.037 15.848 36.765 14.656 36.765 13.328C36.765 12 37.037 10.824 37.581 9.8C38.141 8.776 38.893 7.984 39.837 7.424C40.797 6.848 41.853 6.56 43.005 6.56ZM47.589 13.376C47.589 12.464 47.397 11.672 47.013 11C46.645 10.328 46.157 9.816 45.549 9.464C44.941 9.112 44.285 8.936 43.581 8.936C42.877 8.936 42.221 9.112 41.613 9.464C41.005 9.8 40.509 10.304 40.125 10.976C39.757 11.632 39.573 12.416 39.573 13.328C39.573 14.24 39.757 15.04 40.125 15.728C40.509 16.416 41.005 16.944 41.613 17.312C42.237 17.664 42.893 17.84 43.581 17.84C44.285 17.84 44.941 17.664 45.549 17.312C46.157 16.96 46.645 16.448 47.013 15.776C47.397 15.088 47.589 14.288 47.589 13.376ZM53.0306 13.328C53.0306 12 53.3026 10.824 53.8466 9.8C54.4066 8.776 55.1586 7.984 56.1026 7.424C57.0626 6.848 58.1186 6.56 59.2706 6.56C60.3106 6.56 61.2146 6.768 61.9826 7.184C62.7666 7.584 63.3906 8.088 63.8546 8.696V6.776H66.6146V20H63.8546V18.032C63.3906 18.656 62.7586 19.176 61.9586 19.592C61.1586 20.008 60.2466 20.216 59.2226 20.216C58.0866 20.216 57.0466 19.928 56.1026 19.352C55.1586 18.76 54.4066 17.944 53.8466 16.904C53.3026 15.848 53.0306 14.656 53.0306 13.328ZM63.8546 13.376C63.8546 12.464 63.6626 11.672 63.2786 11C62.9106 10.328 62.4226 9.816 61.8146 9.464C61.2066 9.112 60.5506 8.936 59.8466 8.936C59.1426 8.936 58.4866 9.112 57.8786 9.464C57.2706 9.8 56.7746 10.304 56.3906 10.976C56.0226 11.632 55.8386 12.416 55.8386 13.328C55.8386 14.24 56.0226 15.04 56.3906 15.728C56.7746 16.416 57.2706 16.944 57.8786 17.312C58.5026 17.664 59.1586 17.84 59.8466 17.84C60.5506 17.84 61.2066 17.664 61.8146 17.312C62.4226 16.96 62.9106 16.448 63.2786 15.776C63.6626 15.088 63.8546 14.288 63.8546 13.376ZM76.8802 6.56C77.9202 6.56 78.8482 6.776 79.6642 7.208C80.4962 7.64 81.1442 8.28 81.6082 9.128C82.0722 9.976 82.3042 11 82.3042 12.2V20H79.5922V12.608C79.5922 11.424 79.2962 10.52 78.7042 9.896C78.1122 9.256 77.3042 8.936 76.2802 8.936C75.2562 8.936 74.4402 9.256 73.8322 9.896C73.2402 10.52 72.9442 11.424 72.9442 12.608V20H70.2082V6.776H72.9442V8.288C73.3922 7.744 73.9602 7.32 74.6482 7.016C75.3522 6.712 76.0962 6.56 76.8802 6.56ZM88.9861 9.008V16.328C88.9861 16.824 89.0981 17.184 89.3221 17.408C89.5621 17.616 89.9621 17.72 90.5221 17.72H92.2021V20H90.0421C88.8101 20 87.8661 19.712 87.2101 19.136C86.5541 18.56 86.2261 17.624 86.2261 16.328V9.008H84.6661V6.776H86.2261V3.488H88.9861V6.776H92.2021V9.008H88.9861Z" fill="black"/>
<path d="M95.8278 20.168C95.3318 20.168 94.9158 20 94.5798 19.664C94.2438 19.328 94.0758 18.912 94.0758 18.416C94.0758 17.92 94.2438 17.504 94.5798 17.168C94.9158 16.832 95.3318 16.664 95.8278 16.664C96.3078 16.664 96.7158 16.832 97.0518 17.168C97.3878 17.504 97.5558 17.92 97.5558 18.416C97.5558 18.912 97.3878 19.328 97.0518 19.664C96.7158 20 96.3078 20.168 95.8278 20.168Z" fill="#6C7275"/>
</svg>
